<svg xmlns="http://www.w3.org/2000/svg" width="436" height="518.46" viewBox="0 0 436 518.46"><defs><style>.a{fill:#fff;stroke:#000;}.a,.b,.c{stroke-miterlimit:10;}.b{fill:#1d2c49;stroke:#1d2c49;}.c{fill:orange;stroke:orange;}</style></defs><rect class="a" x="0.5" y="0.5" width="435" height="407.16"/><path class="b" d="M17.42,15.83h195s-10.88,7.88-13.25,17.88-1.88,17.12-.13,21.87a7.51,7.51,0,0,1-1.37,4.13c-1.38,1.75-1.25-3.63-7.63-3.25s-15.25-1.63-27.12,19.75c0,0-3.88,9.87-4.5,18.37s-1.38,20.13-.25,23.13S146,120,146,120s-3.37.87-3.5,2.25,0,8.62.13,12.75-.88,6.5-1.25,10.37-2.88,7.38-2.5,11.75,7.25,4.63,11.25,5,3.62,1.25,1.37,1.88-8.87.75-8.62,8.75,2.75,27,3.37,32.12-3.87.5-3.37,2-1.75-.87-3.13,4.88.38,4.75,1,5.5a2,2,0,0,0,1.38.75l-1.88,2.62-.62,3,1,2.13,1,.87a4.26,4.26,0,0,0,.12,5.75c2.63,3,1.38,1.63,1.13,4.5s-5.5,24.25-4.13,33.63-3.25,12.25-5.25,16.37-13.62,22.25-13.12,26.5-1.13,8.75-2.38,11.13-6.75,8-6.5,13.87.63,6.75,3.38,9.25c0,0-2.38,8.13-3.25,11.5s-4.25,16.63-4.88,19-1.75,6.88-1.37,9.25l-.38,1H17.42Z"/><path class="b" d="M135.29,388.33H239.67s.87-12.37,3.75-18,2.25-12.5,2-17,.37-12.37-3.25-14.37l-.63-5.5s-3.62-8.25-2.62-10.38c-.25-2.37-1-22.5-1-22.5s1.12-3.75,3.25-5.25c.62-1.87,1.12-12.75-1.13-15-2-2.25-3.5-2.12-8-2.62s-2,4.62-17.5-19.38c-2.62-4.5-5.37-8.75-6.62-10.37s-3.13-1.63-6-1.88-3.25-.37-5.75-5l-2.5-4.62s-.64-1.25-3.2,6.62-5.18,0-10.18,19.63c-3.12,6.62-3.37,7.37-3.87,16.25-1.25,4.5-3.88,5.62-6.63,7.37s-3.12,6.63-4.12,7.88-5,1.25-7.13,8.75-2.5,3.12-.37,10.12c0,0-3.13,12-5,14.75s-4.88,10.38-5.75,13.88-4.75,8.5-7.63,9-6.12,11-6.5,13.87-1.5,18.25,0,20.5A9,9,0,0,0,135.29,388.33Z"/><path class="c" d="M240.17,15.83H419v372.5H300.85a7,7,0,0,1-1.87-3.12c-.88-2.38-11.31-6.5-14.44-7.32s-9.31-11-11.44-13.18a8.21,8.21,0,0,1-1.5-3.57l-1.18-20.25a3.56,3.56,0,0,1,.75-2.56c.93-1.06,2.62-3.75,2.43-5.94s-1-11.06-1.5-12.18-.31-3-.37-4,1.19-3.94,1.5-5,3.19-23.19,2.94-24.63-.13-12.75-2-13.94-.38-6.43-1-7.31-2.88.31-3.69-2.62-9.38-23.07-9.38-23.07l-5.68-11.75S239,205.83,237.23,204.14s-2.25-12.25-.63-14.93,2.44.43,2.63.43,4.37,2.69,6.19.82,6.56-9.25,6.62-12.07,1.38-30.68.5-32c-.31-1.31-1.06-6-6.06-7.75s.12-3.62,0-6.25-.88-4.5.94-3.25,22.31,12.63,25,13a27.45,27.45,0,0,0,5.06.44c1.87,0,4.06,2.31,4.87,2,.88,0,4,.13,10.75-5.5s7.88-5,9.5-10.75,1.13-13.94,4.69-14.81,6.63,2.31,2.94-9.44c-1.75-11.31-1.31-11.81.31-11.94,1.44-.75,1-.56,4.25-4.18s3.31-3.82,3.5-4.19a6,6,0,0,0,.19-1.63s1-.62,1.31-.87a7.59,7.59,0,0,1,2.19-.75c.31,0-.5-.88,1-.94,5.62,0,33.69.19,33.69.19V76.58s.06-1.06.75-1,1.25.13,1.5.44,7,.19,7,.19a5.16,5.16,0,0,1,3.31-1.07l20.87.07s.44,1.75,1.38,1.75,2.5.25,2.44-.75c3.12,0,11.25-.07,11.25-.07s.43,0,.37-2.68c.06-2.32.13-1.94-7.81-1.94-2.88,0-3.44-.06-3.44-.06s.44-1-1.37-1-2.69.93-2.69,1.5-.81.5-.81.5l-21.25-.19s-1.07-.13-.69-3.25-.88-4.38-1.88-3.69-1.75,1-1.87,1.19-1.13-1-1.25-2.06-.19-11.19-.19-11.38-.56-1.69-1.25-1.25-1.87-.19-2.06.56S358.92,67,358.92,67s-1.13.87-1.75-.13-1.25-.43-1.13-1.62a2.75,2.75,0,0,0-.75-2.06H274.54s-.25-3.88-.87-3.63a39.51,39.51,0,0,1-4.88.38l-.12-6.38s-.38-1.87-1.75-.75c-1.25.13-1.13,5.63-1.25,6.25s-1.13.63-1.13.63V62l-4.5.5s-6.12,1.12-7,1.75-4.12.87-4.12.87l-1.5.25a31.5,31.5,0,0,1-1-3.12c0-.38-.13-3-.13-3s.25,1-.25-.75a8.18,8.18,0,0,1-.25-3.25s7.88-2.88,9.25-5.38,1.38-12,.13-15.87-2-5-2-6-.38-4.25-.38-4.25a68.84,68.84,0,0,0-7.25-3.25,26.75,26.75,0,0,1-5.87-3.38Z"/><path class="a" d="M89.67,499.08H22.92v-45.5H89.67s-.5-13.12-13.13-17c-2.62-.62-7.75-.62-11-.62H17.92s-16.5,1.37-16.75,18.12,0,45,0,45-1.88,18.75,26.37,18.75H71s12.75-.5,18-12.87A15,15,0,0,0,89.67,499.08Z"/><path class="a" d="M123.17,517.83H178s18.5-1.33,18.67-18.5c.62-21.62-.13-32.5-28.17-31.5H125.67V453h69.66s-1-17.08-19.16-17-53,0-53,0-17.84.54-17.84,17v16.5S103.5,485.67,130,485.83s46.83-.16,46.83-.16V500l-71.52-.33s1.36,10.66,8.36,14.5a59.62,59.62,0,0,0,8,3.66"/><rect class="a" x="211.04" y="455.46" width="13.13" height="13.5"/><rect class="a" x="211.04" y="483.46" width="13.13" height="14.25"/><path class="a" d="M329.17,452.33H255.29v49.25h56.25l-.12-17.37-27.63-.13s-8.87-1.5-12.37-8c-2.38-6-4.13-5.87,1-5.87s56.75.37,56.75.37v30.13s.37,17-18.38,17.12-52.37,0-52.37,0l-5.75.06s-12-2.06-14.88-13.68V452.33s1-16.12,17.25-16.37,58.25,0,58.25,0,8,1.62,11.5,5.87c2.5,4.5,4.38,6.75,4.38,8.13Z"/><path class="a" d="M433.83,495.83s.17-21.33,0-41.16S414,435.85,414,435.85H361.83a17.77,17.77,0,0,0-3.33.83c-1.5.16-4.5,1.66-8.17,4.83s-5.16,11.67-5.16,11.67.16,21.83,0,44.5,24.33,20.22,24.33,20.22,12.5-.06,39.83,0S433.83,495.83,433.83,495.83Zm-32.45,5.59c-16.35,0-23.83,0-23.83,0s-14.66,1.47-14.56-12.1,0-26.62,0-26.62.9-5.09,3.09-7,4-2.79,4.89-2.89a10.66,10.66,0,0,1,2-.5h31.22s11.76-.61,11.86,11.26,0,24.63,0,24.63S417.74,501.46,401.38,501.42Z"/></svg>