<svg xmlns="http://www.w3.org/2000/svg" xmlns:xlink="http://www.w3.org/1999/xlink" width="47.44" height="47.5" viewBox="0 0 47.44 47.5"><defs><style>.a{fill:url(#a);}.b{fill:url(#b);}.c{fill:url(#c);}.d{fill:url(#d);}.e{fill:url(#e);}.f{fill-opacity:0.32;}.g{fill-opacity:0.33;}.h{fill:url(#f);}.i{fill:url(#g);}.j{fill:url(#h);}.k{fill:url(#i);}.l{fill-opacity:0.29;}.m{fill:url(#j);}.n{fill:#792100;}.o{fill:url(#k);}.p{fill:url(#l);}.q{fill:url(#m);}.r{fill:url(#n);}.s{fill:url(#o);}.t{fill:url(#p);}.u{fill:url(#q);}.v{fill:url(#r);}.w{fill:url(#s);}.x{fill-opacity:0.26;}.y{fill-opacity:0.28;}.z{fill-opacity:0.41;}.aa{fill:url(#t);}.ab{fill:url(#u);}</style><linearGradient id="a" x1="-2238.95" y1="451.16" x2="-2217.47" y2="492.7" gradientTransform="translate(2250.58 -451.8)" gradientUnits="userSpaceOnUse"><stop offset="0" stop-color="#5b779e"/><stop offset="0.4" stop-color="#2d3b50"/><stop offset="1" stop-color="#0c0e14"/></linearGradient><linearGradient id="b" x1="-2261.14" y1="408.01" x2="-2254.66" y2="422.21" gradientTransform="translate(2280.53 -399.58)" gradientUnits="userSpaceOnUse"><stop offset="0"/><stop offset="1"/></linearGradient><radialGradient id="c" cx="-2801.92" cy="151.07" r="7.5" gradientTransform="matrix(3.74, -0.76, 0.4, 1.95, 10448.13, -2419.72)" gradientUnits="userSpaceOnUse"><stop offset="0" stop-color="#e6f1fd"/><stop offset="0" stop-color="#bdd9f9"/><stop offset="0.07" stop-color="#bdd9f9"/><stop offset="1" stop-color="#1c3556"/></radialGradient><linearGradient id="d" x1="-2278.19" y1="406.54" x2="-2266.96" y2="430.78" xlink:href="#b"/><radialGradient id="e" cx="-2800.76" cy="146.44" r="7.5" gradientTransform="matrix(3.74, -0.76, 0.4, 1.95, 10440.85, -2403.96)" xlink:href="#c"/><linearGradient id="f" x1="-2183.27" y1="404.36" x2="-2177" y2="409.93" gradientTransform="translate(2221.03 -399.58)" gradientUnits="userSpaceOnUse"><stop offset="0" stop-color="#fdec97"/><stop offset="0.35" stop-color="#fdec97"/><stop offset="0.51" stop-color="#fdec97"/><stop offset="0.63" stop-color="#db990f"/><stop offset="1" stop-color="#db990f"/></linearGradient><linearGradient id="g" x1="-2182.8" y1="442.62" x2="-2176.18" y2="435.88" gradientTransform="translate(2221.03 -399.58)" gradientUnits="userSpaceOnUse"><stop offset="0" stop-color="#ffdc76"/><stop offset="0.33" stop-color="#e4903b"/><stop offset="0.45" stop-color="#ca4400"/><stop offset="0.58" stop-color="#fdec97"/><stop offset="0.7" stop-color="#db990f"/><stop offset="1" stop-color="#db990f"/></linearGradient><linearGradient id="h" x1="-2213.32" y1="441.41" x2="-2217.75" y2="436.55" xlink:href="#g"/><linearGradient id="i" x1="-2217.66" y1="410.32" x2="-2211.65" y2="404.4" gradientTransform="translate(2221.03 -399.58)" gradientUnits="userSpaceOnUse"><stop offset="0" stop-color="#ca4400"/><stop offset="0.35" stop-color="#ca4400"/><stop offset="0.51" stop-color="#fdec97"/><stop offset="0.63" stop-color="#db990f"/><stop offset="1" stop-color="#db990f"/></linearGradient><linearGradient id="j" x1="-2209.29" y1="410.71" x2="-2203.85" y2="434.95" gradientTransform="translate(2221.03 -399.58)" gradientUnits="userSpaceOnUse"><stop offset="0" stop-color="#da940f"/><stop offset="0.24" stop-color="#efd11a"/><stop offset="0.75" stop-color="#efd11a"/><stop offset="0.91" stop-color="#efd11a"/><stop offset="1" stop-color="#d3900e"/></linearGradient><linearGradient id="k" x1="-2205.88" y1="410.63" x2="-2201.07" y2="433.49" gradientTransform="translate(2221.03 -399.58)" gradientUnits="userSpaceOnUse"><stop offset="0" stop-color="#c63000"/><stop offset="0.49" stop-color="#db9000"/><stop offset="0.8" stop-color="#db9000"/><stop offset="1" stop-color="#c43b00"/></linearGradient><linearGradient id="l" x1="-2196.39" y1="421.45" x2="-2199.92" y2="436.14" gradientTransform="translate(2221.03 -399.58)" gradientUnits="userSpaceOnUse"><stop offset="0" stop-color="#ad2f00"/><stop offset="1" stop-color="#cb7500"/></linearGradient><linearGradient id="m" x1="-2196.44" y1="414.47" x2="-2201.48" y2="429.94" gradientTransform="translate(2221.03 -399.58)" gradientUnits="userSpaceOnUse"><stop offset="0" stop-color="#ecd500"/><stop offset="0.87" stop-color="#ecd500"/><stop offset="1" stop-color="#ffef57"/></linearGradient><linearGradient id="n" x1="-2207.38" y1="410.43" x2="-2206.14" y2="413.09" gradientTransform="translate(2221.03 -399.58)" gradientUnits="userSpaceOnUse"><stop offset="0" stop-color="#ffd511"/><stop offset="1" stop-color="#fdf8dc"/></linearGradient><linearGradient id="o" x1="-2198.3" y1="414.01" x2="-2192.47" y2="434.12" gradientTransform="translate(2221.03 -399.58)" gradientUnits="userSpaceOnUse"><stop offset="0" stop-color="#bd3300"/><stop offset="0.19" stop-color="#bd3300"/><stop offset="0.41" stop-color="#cb8500"/><stop offset="1" stop-color="#c26f00"/></linearGradient><linearGradient id="p" x1="-2198.54" y1="421.81" x2="-2194.66" y2="435.18" gradientTransform="translate(2221.03 -399.58)" gradientUnits="userSpaceOnUse"><stop offset="0" stop-color="#ffd303"/><stop offset="0.9" stop-color="#ffd303"/><stop offset="1" stop-color="#d27e00"/></linearGradient><linearGradient id="q" x1="-2185.84" y1="410.09" x2="-2190.2" y2="436.41" gradientTransform="translate(2221.03 -399.58)" gradientUnits="userSpaceOnUse"><stop offset="0" stop-color="#a51f00"/><stop offset="0.29" stop-color="#c67200"/><stop offset="0.64" stop-color="#c67200"/><stop offset="1" stop-color="#c25500"/></linearGradient><linearGradient id="r" x1="-2189.22" y1="410.65" x2="-2193.6" y2="433.92" gradientTransform="translate(2221.03 -399.58)" gradientUnits="userSpaceOnUse"><stop offset="0" stop-color="#cd7c00"/><stop offset="0.31" stop-color="#eed700"/><stop offset="1" stop-color="#eed700"/></linearGradient><linearGradient id="s" x1="-2187.74" y1="410.44" x2="-2186.59" y2="412.72" xlink:href="#n"/><linearGradient id="t" x1="-2222.39" y1="433.77" x2="-2170.64" y2="412.23" gradientTransform="translate(2221.03 -399.58)" gradientUnits="userSpaceOnUse"><stop offset="0" stop-color="#51290e"/><stop offset="0.35" stop-color="#d08e29"/><stop offset="0.42" stop-color="#e1d02d"/><stop offset="0.5" stop-color="#f6e57f"/><stop offset="0.54" stop-color="#f6e57f"/><stop offset="0.6" stop-color="#e1d02d"/><stop offset="0.69" stop-color="#d08e29"/><stop offset="1" stop-color="#452a15"/></linearGradient><linearGradient id="u" x1="-2184.32" y1="441.76" x2="-2211.07" y2="403.84" gradientTransform="translate(2220.47 -400.59)" gradientUnits="userSpaceOnUse"><stop offset="0" stop-color="#ffe12b"/><stop offset="0.14" stop-color="#fff7c7"/><stop offset="0.82" stop-color="#fff7c7"/><stop offset="1" stop-color="#ffe12b"/></linearGradient></defs><path class="a" d="M44.18,23.68c0,11.34-8.94,20.54-20,20.54s-20-9.19-20-20.53v0c0-11.34,8.94-20.54,20-20.55s20,9.19,20,20.54Z"/><path class="b" d="M26.16,3.41l-8,.5a1.08,1.08,0,0,0-.5.15l-7,4.5a1.06,1.06,0,0,0,0,1.78,5.85,5.85,0,0,1,2.09,2c.55,1.47,1.18,3.62,1.72,5.47.27.93.52,1.79.75,2.47.11.34.2.65.31.91a2.14,2.14,0,0,0,.44.75l.12.09a4.29,4.29,0,0,0,1.57.78,14.31,14.31,0,0,0,1.93.44,12.62,12.62,0,0,0,1.85.16A2.33,2.33,0,0,0,23,23.13l.1-.07a1.05,1.05,0,0,0,.37-.5,2.6,2.6,0,0,0,.16-.34c.09-.24.16-.52.25-.84.17-.66.35-1.47.5-2.32s.27-1.72.34-2.46a4.84,4.84,0,0,0,0-1.82s0-.06,0-.09h0a11.83,11.83,0,0,0-1.28-3.16,9.93,9.93,0,0,0-2.5-2.9.81.81,0,0,1,.31-.19l3.91,0a1,1,0,0,0,.34-.06,1.63,1.63,0,0,0,.66-.19,1.51,1.51,0,0,0,.65-.63A1.75,1.75,0,0,0,27,6.87l.25-2.28A1,1,0,0,0,27,3.74,1.07,1.07,0,0,0,26.16,3.41Z"/><path class="c" d="M26.22,4.47,26,6.75c-.07.65-.34.49-.82.64H21c-1.21.39-1.35,1-1.26,1.59,2.3,1.28,3.74,4.92,3.95,6s-.85,6.93-1.25,7.25c-.68.42-4.73-.17-5.75-1-.55-.62-1.84-6.17-3-9.25a6.2,6.2,0,0,0-2.5-2.5l7-4.5Z"/><path class="d" d="M6.25,16.06a.93.93,0,0,0-.81.69L3,25a.93.93,0,0,0,.38,1,5.78,5.78,0,0,1,2.15,2.06.86.86,0,0,0,.1.16s0,0,0,.09.09.51.15.88c.13.73.31,1.72.53,2.75a15.64,15.64,0,0,0,.94,3,3.58,3.58,0,0,0,2,2.09c-.24-.08,0,0,.1.1l.53.34c.44.29,1,.65,1.56,1s1.13.78,1.59,1.06c.24.15.45.25.63.35L14,40a.71.71,0,0,0,.59.06.89.89,0,0,0,.72-.5,1.35,1.35,0,0,0,.13-.34,3.87,3.87,0,0,0,.15-.63c.08-.45.13-1,.19-1.56s.13-1.1.19-1.47c0-.15,0-.22.06-.28s.17-.05.22-.12a1.29,1.29,0,0,0,.22-.81,2.94,2.94,0,0,0-.34-1.19,19.08,19.08,0,0,0-1.63-2.6c-1.28-1.8-2.75-3.58-3.4-4.31-.06-.18-.09-.36-.16-.56s-.19-.51-.25-.75a16,16,0,0,0,4.41,1.31.67.67,0,0,0,.28,0,5.51,5.51,0,0,0,1.43-.44,3,3,0,0,0,.82-.47,1.65,1.65,0,0,0,.59-1.06.91.91,0,0,0-.16-.62c-1.77-2.66-4.33-3.34-7-4.31L9.53,17.47a.94.94,0,0,0-.34-.25L6.72,16.16a1,1,0,0,0-.47-.1Z"/><path class="e" d="M10.49,20.13c2.82,1.05,5.14,1.59,6.78,4.05-.07.65-1.48,1.08-2.06,1.18a16.52,16.52,0,0,1-4.82-1.52c-1.53-.33-.2,2.36-.12,2.91,1.09,1.19,6.5,7.82,5,8-.37,0-.53,4.39-.86,4.45S10,36.26,9.59,36.14c-2.37-.78-2.76-8.2-3.15-8.42a6.2,6.2,0,0,0-2.5-2.5L6.34,17l2.48,1.06Z"/><path class="f" d="M44.05,12.9,44,6a1.27,1.27,0,0,0-.36-.89,1.21,1.21,0,0,0-.89-.36l-6.34-.06a1.22,1.22,0,0,0-1.15.74,1.24,1.24,0,0,0,.24,1.35l6.38,7a1.23,1.23,0,0,0,2.15-.84Z"/><path class="f" d="M43.64,12.9,43.6,6a.81.81,0,0,0-.81-.81l-6.34-.07a.83.83,0,0,0-.63,1.38l6.38,7a.83.83,0,0,0,1.44-.56Z"/><path class="f" d="M43.37,12.9l0-6.94a.5.5,0,0,0-.16-.4.54.54,0,0,0-.4-.17l-6.34-.06a.55.55,0,0,0-.41.94l6.38,7a.56.56,0,0,0,.61.15A.55.55,0,0,0,43.37,12.9Z"/><path class="g" d="M43.06,12.9,43,6l0-.09a.36.36,0,0,0-.07-.1l0,0a.24.24,0,0,0-.12,0l0,0L36.4,5.62l-.06,0-.09,0-.06.06a.3.3,0,0,0,0,.1.38.38,0,0,0,0,.15.36.36,0,0,0,.07.1l6.37,7a.29.29,0,0,0,.22.06.28.28,0,0,0,.13,0l0,0A.33.33,0,0,0,43,13,.32.32,0,0,0,43.06,12.9Z"/><path class="h" d="M36.81,6l5.92,0,0,6.37Z"/><path class="f" d="M36.84,42.34l6.94,0a1.19,1.19,0,0,0,.89-.36,1.21,1.21,0,0,0,.36-.89l.06-6.34a1.22,1.22,0,0,0-.74-1.15,1.24,1.24,0,0,0-1.35.24l-7,6.38a1.23,1.23,0,0,0,.84,2.15Z"/><path class="f" d="M36.87,41.93l6.93,0a.84.84,0,0,0,.82-.81l.06-6.35a.83.83,0,0,0-1.38-.62l-7,6.37a.83.83,0,0,0,.57,1.44Z"/><path class="f" d="M36.84,41.66l6.94,0a.54.54,0,0,0,.4-.17.5.5,0,0,0,.16-.4l.07-6.34a.57.57,0,0,0-.34-.52.56.56,0,0,0-.6.11l-7,6.38a.54.54,0,0,0-.15.61A.55.55,0,0,0,36.84,41.66Z"/><path class="g" d="M36.82,41.36l6.93,0,.1,0a.24.24,0,0,0,.09-.06l0,0a.27.27,0,0,0,0-.12.08.08,0,0,0,0,0l.06-6.34,0-.06,0-.1L44,34.48l-.09,0a.43.43,0,0,0-.16,0l-.09.06-7,6.38a.25.25,0,0,0-.06.22.24.24,0,0,0,0,.12s0,0,0,0a.31.31,0,0,0,.09.07Z"/><path class="i" d="M43.72,33.89l0,7.1H36.93Z"/><path class="f" d="M2.34,34.09l0,6.94a1.24,1.24,0,0,0,.37.89,1.17,1.17,0,0,0,.88.36l6.35.06a1.23,1.23,0,0,0,.9-2.09l-6.37-7a1.24,1.24,0,0,0-2.16.84Z"/><path class="f" d="M2.78,34.12l0,6.93a.84.84,0,0,0,.81.82l6.35.06a.83.83,0,0,0,.76-.49.82.82,0,0,0-.14-.89l-6.37-7a.83.83,0,0,0-1.44.57Z"/><path class="f" d="M3,34.09l0,6.94a.54.54,0,0,0,.17.4.5.5,0,0,0,.4.16l6.34.07a.57.57,0,0,0,.52-.34.56.56,0,0,0-.11-.6L4,33.72a.54.54,0,0,0-.61-.15A.55.55,0,0,0,3,34.09Z"/><path class="g" d="M3.31,34.07l0,6.94a.16.16,0,0,0,0,.09.33.33,0,0,0,.06.1l0,0a.28.28,0,0,0,.13,0l0,0,6.34.06.07,0,.09,0,.06-.06a.17.17,0,0,0,0-.1.19.19,0,0,0,0-.15.21.21,0,0,0-.06-.1l-6.37-7a.3.3,0,0,0-.22-.06.28.28,0,0,0-.13,0l0,0a.21.21,0,0,0-.06.1A.16.16,0,0,0,3.31,34.07Z"/><path class="j" d="M10.13,41H3.72V34Z"/><path class="f" d="M11.66,4.72l-6.94,0A1.23,1.23,0,0,0,3.47,6l-.06,6.34a1.24,1.24,0,0,0,2.09.91l7-6.38a1.24,1.24,0,0,0-.84-2.15Z"/><path class="f" d="M11.66,5.16l-6.94,0A.81.81,0,0,0,3.91,6l-.06,6.34a.8.8,0,0,0,.48.76A.81.81,0,0,0,5.22,13l7-6.38a.82.82,0,0,0,.21-.91.8.8,0,0,0-.77-.52Z"/><path class="f" d="M11.66,5.41l-6.94,0A.55.55,0,0,0,4.16,6L4.1,12.34a.55.55,0,0,0,.93.41l7-6.38a.55.55,0,0,0-.37-1Z"/><path class="g" d="M11.66,5.69l-6.94,0a.19.19,0,0,0-.1,0,.47.47,0,0,0-.09.06l0,0a.31.31,0,0,0,0,.13l0,0-.06,6.34a.09.09,0,0,0,0,.07.16.16,0,0,0,0,.09l.06.06.09,0a.22.22,0,0,0,.16,0,.15.15,0,0,0,.09-.06l7-6.37a.26.26,0,0,0,.07-.22.28.28,0,0,0,0-.13l0,0a.15.15,0,0,0-.09-.06Z"/><path class="k" d="M4.67,12.35,4.71,6l6.94,0Z"/><path class="l" d="M10.69,10.56a.46.46,0,0,0-.29.17.39.39,0,0,0-.06.33L11,13.47l4.75,21.12-.44,2.32a.38.38,0,0,0,.09.32.37.37,0,0,0,.29.14h6.9a.37.37,0,0,0,.31-.16.37.37,0,0,0,.07-.34l-.44-2.21,1.19-4.54,1.47,4.6-.66,2.12a.44.44,0,0,0,.05.37.42.42,0,0,0,.33.16l7.78,0a.37.37,0,0,0,.32-.17.36.36,0,0,0,.05-.36l-.9-2.44L35.75,14l1.34-2.85a.38.38,0,0,0,0-.37.42.42,0,0,0-.32-.19H30a.43.43,0,0,0-.32.14.39.39,0,0,0-.09.33L30,13.34,27.63,26.56,24,12.44a.4.4,0,0,0-.75,0l-3.53,14L16.75,13.34,17.12,11a.37.37,0,0,0-.12-.34.41.41,0,0,0-.28-.13h-6Z"/><path class="l" d="M10.56,10.25a.71.71,0,0,0-.45.34.76.76,0,0,0-.08.57l.69,2.37h0l4.75,21.06L15,36.84a.78.78,0,0,0,.16.59.76.76,0,0,0,.56.26h6.9a.73.73,0,0,0,.57-.27.71.71,0,0,0,.15-.61l-.43-2.12.87-3.35,1.1,3.38-.63,2a.73.73,0,0,0,.11.64.76.76,0,0,0,.58.3l7.78,0a.72.72,0,0,0,.59-.31.74.74,0,0,0,.1-.66l-.88-2.38,3.53-20.25,1.35-2.84a.74.74,0,0,0,0-.69.72.72,0,0,0-.61-.34H30a.73.73,0,0,0-.56.26.75.75,0,0,0-.16.58l.38,2.25L27.59,25,24.31,12.34a.72.72,0,0,0-.72-.6.73.73,0,0,0-.72.6L19.69,25l-2.6-11.72.35-2.16a.74.74,0,0,0-.72-.84H10.56Z"/><path class="l" d="M10.5,9.94a1,1,0,0,0-.78,1.31l.69,2.35v.06l4.72,20.87-.44,2.25a1,1,0,0,0,1,1.22h6.9a1,1,0,0,0,.82-.38,1,1,0,0,0,.22-.87l-.44-2.13.59-2.18.72,2.28-.59,1.94a1,1,0,0,0,.16.92,1,1,0,0,0,.84.42l7.78,0a1.06,1.06,0,0,0,.84-.44,1,1,0,0,0,.13-.93l-.85-2.29,3.54-20.18,1.31-2.78a1.05,1.05,0,0,0-.07-1,1,1,0,0,0-.87-.48H30a1,1,0,0,0-.8.37,1,1,0,0,0-.23.85l.37,2.18L27.5,23.53,24.6,12.28a1,1,0,0,0-1-.76,1,1,0,0,0-1,.76L19.72,23.72,17.41,13.31l.34-2.19a1,1,0,0,0-.24-.82,1,1,0,0,0-.79-.36H10.5Z"/><path class="l" d="M10.56,9.56a1.46,1.46,0,0,0-1,.61,1.43,1.43,0,0,0-.2,1.17L10,13.69v.06l4.72,20.84-.4,2.1a1.35,1.35,0,0,0,.29,1.16,1.37,1.37,0,0,0,1.08.52h6.91a1.38,1.38,0,0,0,1.15-.59,1.41,1.41,0,0,0,1.16.59l7.78,0A1.42,1.42,0,0,0,34,36.5l-.78-2.15,3.47-20L38,11.6a1.41,1.41,0,0,0-1.28-2H30a1.42,1.42,0,0,0-1.09.5,1.44,1.44,0,0,0-.32,1.16l.38,2.12-1.5,8.41L25,12.19a1.42,1.42,0,0,0-2.75,0L19.75,22l-2-8.75.34-2.09a1.39,1.39,0,0,0-.32-1.14,1.44,1.44,0,0,0-1.08-.49H10.56ZM23.84,33.81l.32.94-.35,1.06-.22-1.06Z"/><path class="l" d="M10.71,11l.71,2.4,4.77,21.2L15.72,37h6.91l-.47-2.32,1.57-6,1.89,6L25,37h7.78l-.95-2.54,3.58-20.53L36.75,11H30l.39,2.39L27.72,28.44,23.6,12.53,19.66,28.16,16.35,13.28,16.72,11Z"/><path class="m" d="M10.72,11l3.38,2.5,4.52,21L15.72,37l.47-2.42L11.44,13.37Z"/><path class="n" d="M18.62,34.5,15.72,37h6.92L20,34.52Z"/><path class="o" d="M16.7,11l-2.6,2.48,4.52,21H20L19.69,28l-3.22-14.6Z"/><path class="p" d="M22.64,37,20,34.52l3.74-14.36,0,8.54-1.57,6Z"/><path class="q" d="M23.59,12.5l.13,7.59L20,34.53,19.72,28Z"/><path class="r" d="M10.71,11l3.39,2.5L16.72,11Z"/><path class="s" d="M23.59,12.52l.12,7.63,3.44,14.38H29.3Z"/><path class="t" d="M23.71,20.16l0,8.52,1.89,6L25,37l2.22-2.43Z"/><path class="n" d="M29.29,34.53H27.18L24.94,37h7.79Z"/><path class="u" d="M35.35,13.89,36.74,11,33,13.11,29.27,34.53,32.74,37l-1-2.55Z"/><path class="v" d="M30.36,13.34,30,11l3,2.1L29.27,34.51l-1.56-6.08Z"/><path class="w" d="M30,11l3,2.13L36.76,11Z"/><path class="x" d="M23.72.91A22.84,22.84,0,1,0,46.53,23.75,22.83,22.83,0,0,0,23.72.91Zm-.1,3.93A18.77,18.77,0,1,1,4.91,23.59,18.71,18.71,0,0,1,23.62,4.84Z"/><path class="y" d="M23.72.56A23.19,23.19,0,1,0,46.88,23.75,23.19,23.19,0,0,0,23.72.56Zm-.1,4.63A18.42,18.42,0,1,1,5.25,23.59,18.35,18.35,0,0,1,23.62,5.19Z"/><path class="z" d="M23.72,0A23.75,23.75,0,1,0,47.44,23.75,23.75,23.75,0,0,0,23.72,0Zm-.1,5.75A17.86,17.86,0,1,1,5.81,23.59,17.79,17.79,0,0,1,23.62,5.75Z"/><path class="aa" d="M23.72,1.25a22.5,22.5,0,1,0,22.47,22.5A22.48,22.48,0,0,0,23.72,1.25Zm-.1,3.25A19.11,19.11,0,1,1,4.56,23.59,19.06,19.06,0,0,1,23.62,4.5Z"/><path class="ab" d="M23.15,1.4A21.34,21.34,0,1,0,44.47,22.74,21.31,21.31,0,0,0,23.15,1.4Zm-.09.93A20.27,20.27,0,1,1,2.84,22.58,20.24,20.24,0,0,1,23.06,2.33Z"/></svg>